HIERARCHY
ROOT Hips
{
	OFFSET 0.00000 0.00000 0.00000
	CHANNELS 6 Xposition Yposition Zposition Yrotation Zrotation Xrotation 
	JOINT Lumbar
	{
		OFFSET 0 0 0
		CHANNELS 3 Zrotation Xrotation Yrotation
		JOINT Neck
		{
			OFFSET 0.00 0.2701 0.00
			CHANNELS 3 Zrotation Xrotation Yrotation
			End Site
			{
				OFFSET 0.00 0.1379 0.00
			}
		}
		JOINT RightShoulder
		{
			OFFSET 0.0119 0.2289 0.1181
			CHANNELS 3 Zrotation Xrotation Yrotation
			JOINT RightElbow
			{
				OFFSET 0.00 -0.1475 0.00
				CHANNELS 2 Zrotation Yrotation
				JOINT RightWrist
				{
					OFFSET 0.00 -0.1605 0.00
					CHANNELS 2 Zrotation Xrotation
					End Site
					{
						OFFSET 0.0040 -0.1068 0.0006
					}
				}
			}
		}
		JOINT LeftShoulder
		{
			OFFSET 0.0119 0.2289 -0.1181
			CHANNELS 3 Zrotation Xrotation Yrotation
			JOINT LeftElbow
			{
				OFFSET 0.00 -0.1475 0.00
				CHANNELS 2 Zrotation Yrotation
				JOINT LeftWrist
				{
					OFFSET 0.00 -0.1605 0.00
					CHANNELS 2 Zrotation Xrotation
					End Site
					{
						OFFSET 0.0040 -0.1068 -0.0006
					}
				}
			}
		}
	}
	JOINT RightHip
	{
		OFFSET 0.0316 -0.0424 0.0458
		CHANNELS 3 Zrotation Xrotation Yrotation
		JOINT RightKnee
		{
			OFFSET 0.00 -0.2438 0.00
			CHANNELS 1 Zrotation
			JOINT RightAnkle
			{
				OFFSET 0.00 -0.2449 0.00
				CHANNELS 3 Zrotation Xrotation Yrotation
				End Site
				{
					OFFSET 0.1237 -0.0542 0.0051
				}
			}
		}
	}
	JOINT LeftHip
	{
		OFFSET 0.0316 -0.0424 -0.0458
		CHANNELS 3 Zrotation Xrotation Yrotation
		JOINT LeftKnee
		{
			OFFSET 0.00 -0.2438 0.00
			CHANNELS 1 Zrotation
			JOINT LeftAnkle
			{
				OFFSET 0.00 -0.2449 0.00
				CHANNELS 3 Zrotation Xrotation Yrotation
				End Site
				{
					OFFSET 0.1237 -0.0542 -0.0051
				}
			}
		}
	}
}
MOTION
Frames: 13
Frame Time: 0.02
-0.62413 -0.03082 0.08824 -168.73191 -83.36419 17.10121 -17.87321 7.82892 2.00662 17.18307 -18.55561 -2.11993 111.74186 5.42678 43.60488 5.79291 79.81508 -6.17485 4.26782 103.84653 -1.07693 -41.67053 12.58483 -81.29558 -1.69508 3.94418 105.1938 -18.10005 13.38585 -48.98363 -6.37469 -2.92074 -3.63725 115.00732 6.55808 21.79799 -58.06989 -6.69041 0.58397 2.54133
-0.62354 -0.03029 0.08787 -170.62067 -81.44086 15.21053 -18.93783 7.80448 1.90211 17.16338 -18.34687 -2.11993 110.42062 5.59626 42.65239 5.80445 79.96883 -6.19407 3.78936 102.29009 -1.05419 -40.40328 13.11139 -81.91314 -1.65483 4.06541 103.05699 -18.04745 13.31608 -49.07932 -6.3423 -2.90289 -3.62718 112.98724 6.72677 21.81781 -58.34502 -6.67269 0.58238 2.54002
-0.6226 -0.02974 0.08748 -173.70066 -78.33099 12.15379 -21.02189 7.74804 1.7526 17.16914 -18.12267 -2.11993 108.86922 5.82433 41.08455 5.83042 79.52614 -6.33056 3.18372 100.49355 -1.00974 -38.89396 13.72922 -82.2574 -1.5539 4.17641 99.79278 -18.0683 13.10674 -49.47772 -6.28186 -2.86433 -3.60504 109.92314 6.73141 21.38605 -58.97883 -6.61271 0.62903 2.55941
-0.62185 -0.0292 0.0871 -176.18767 -75.93049 9.68146 -22.45673 7.7012 1.62746 17.16482 -17.913 -2.11993 107.40579 6.02767 39.84189 5.86452 79.37987 -6.41088 2.65155 98.789 -0.96574 -37.51842 14.31357 -82.72494 -1.48262 4.29215 97.19981 -18.05415 12.92104 -49.67798 -6.23732 -2.83331 -3.58723 107.48723 6.8193 21.17017 -59.38747 -6.57553 0.65174 2.56858
-0.62098 -0.02867 0.08673 -178.85774 -72.86771 7.01156 -24.61861 7.67588 1.48576 17.15389 -17.67305 -2.11993 106.00817 6.22378 38.42893 5.83592 79.1424 -6.50269 2.05475 97.15087 -0.96106 -36.03403 14.86683 -83.21922 -1.40452 4.40955 93.98596 -18.04365 12.90158 -50.11485 -6.18053 -2.81061 -3.57445 104.45069 6.87893 20.92772 -60.03885 -6.52507 0.68076 2.5802
-0.62027 -0.02811 0.08633 -181.44114 -70.86835 4.46556 -25.54142 7.59785 1.36824 17.16248 -17.49012 -2.11993 104.4199 6.44698 37.2149 5.94224 78.94935 -6.59662 1.56131 95.31948 -0.87045 -34.72401 15.50514 -83.58423 -1.32612 4.51955 91.76614 -18.04228 12.51037 -50.14143 -6.14225 -2.76588 -3.54857 102.38696 6.95423 20.62405 -60.2808 -6.49126 0.70924 2.59215
-0.62008 -0.02747 0.08585 -183.51323 -72.25351 2.52609 -22.65762 7.38277 1.32399 17.22342 -17.49126 -2.11993 102.36907 6.74987 36.71837 6.41043 78.99554 -6.69348 1.39072 93.01507 -0.53575 -33.93202 16.36069 -83.65747 -1.25313 4.62055 92.71883 -18.0727 11.03945 -48.91961 -6.16117 -2.66075 -3.48585 103.40963 7.12503 20.28957 -59.26158 -6.51677 0.7207 2.59825
-0.62006 -0.02679 0.08535 -185.45756 -74.71467 0.75147 -18.52321 7.11564 1.30647 17.302 -17.5461 -2.11993 100.13385 7.07419 36.43881 7.01544 79.10867 -6.78442 1.32755 90.52517 -0.11736 -33.32925 17.29767 -83.60702 -1.18267 4.71266 94.67738 -18.10628 9.21403 -47.28415 -6.19965 -2.53491 -3.41095 105.41528 7.31404 19.90197 -57.82798 -6.55974 0.73088 2.60439
-0.61996 -0.02613 0.08486 -187.45414 -76.57359 -1.09104 -15.05715 6.87169 1.27955 17.37004 -17.56158 -2.11993 97.97849 7.37673 36.04321 7.56223 79.20925 -6.86109 1.21053 88.11956 0.25469 -32.65526 18.19369 -83.6111 -1.11692 4.80274 96.07073 -18.1227 7.60807 -45.86765 -6.22956 -2.42148 -3.34396 106.87111 7.48567 19.51777 -56.61467 -6.59251 0.74441 2.61175
-0.61986 -0.02548 0.08438 -189.52031 -78.86915 -3.00712 -11.20464 6.62823 1.23927 17.45117 -17.6399 -2.11993 95.83065 7.73368 35.69297 8.09196 79.21874 -7.0118 1.10903 85.70462 0.66201 -31.90924 19.10879 -83.61341 -1.02638 4.91793 97.8816 -18.20669 5.75348 -44.33142 -6.25727 -2.29472 -3.26664 108.72672 7.68988 19.2042 -55.27939 -6.63332 0.74803 2.61464
-0.6198 -0.02479 0.08386 -191.3906 -80.52715 -4.71092 -7.84566 6.37232 1.23399 17.50691 -17.59997 -2.11993 93.62759 7.97969 35.31671 8.69059 79.43549 -7.00737 1.00401 83.26929 1.01615 -31.36278 20.00335 -83.59321 -0.98634 4.97906 99.07637 -18.15136 4.33123 -42.94145 -6.29442 -2.19104 -3.20796 109.99616 7.83298 18.73855 -54.09411 -6.66215 0.7712 2.6265
-0.61979 -0.02398 0.08322 -192.79149 -80.15582 -5.90572 -6.16387 6.09049 1.31678 17.50529 -17.22298 -2.11993 91.30849 7.93038 34.7411 9.43724 80.26297 -6.55808 0.84945 80.81588 1.19748 -31.31079 20.81215 -83.54396 -1.10719 4.89089 98.32677 -17.69703 4.21616 -42.06446 -6.35433 -2.15642 -3.20479 109.41351 7.80003 17.85008 -53.43224 -6.65307 0.85028 2.66384
-0.61982 -0.02311 0.08253 -193.98627 -79.11273 -6.87991 -5.01543 5.79893 1.43442 17.47429 -16.72472 -2.11994 88.94341 7.76529 34.149 10.25017 81.28982 -5.9555 0.69082 78.35136 1.32361 -31.45639 21.59899 -83.47711 -1.27512 4.74899 96.92763 -17.10483 4.54338 -41.34609 -6.42292 -2.14572 -3.22062 108.2111 7.70578 16.81445 -52.93253 -6.63164 0.94868 2.71003
